<?xml version="1.0" encoding="UTF-8"?>
<!DOCTYPE svg PUBLIC "-//W3C//DTD SVG 1.1//EN" "http://www.w3.org/Graphics/SVG/1.1/DTD/svg11.dtd">
<!-- Creator: CorelDRAW 2019 (64-Bit) -->
<svg xmlns="http://www.w3.org/2000/svg" xml:space="preserve" width="23.5mm" height="23.4999mm" version="1.1" style="shape-rendering:geometricPrecision; text-rendering:geometricPrecision; image-rendering:optimizeQuality; fill-rule:evenodd; clip-rule:evenodd"
viewBox="0 0 2323.74 2323.73"
 xmlns:xlink="http://www.w3.org/1999/xlink"
 xmlns:xodm="http://www.corel.com/coreldraw/odm/2003">
 <defs>
  <style type="text/css">
   <![CDATA[
    .fil2 {fill:#2B2A29}
    .fil0 {fill:#1473B5;fill-rule:nonzero}
    .fil1 {fill:#3FB24D;fill-rule:nonzero}
   ]]>
  </style>
 </defs>
 <g id="Layer_x0020_1">
  <metadata id="CorelCorpID_0Corel-Layer"/>
  <g id="_1819289735104">
   <path class="fil0" d="M-0 520.91l17.61 -0.23c141.41,0 253.54,35.43 336.37,106.34 65.6,56.17 117.27,130.56 155.01,223.26l553.1 0c-27.63,-133.84 -78.82,-259.02 -153.57,-375.63 -88.87,-138.6 -211.1,-250.26 -366.64,-334.88 -153.94,-83.76 -334.57,-126.06 -541.88,-126.96l0 508.1z"/>
   <path class="fil0" d="M-0 2323.69l5.48 0.04c202.04,0 378.8,-40.75 530.32,-122.22 151.53,-81.48 272.21,-190.47 362.12,-326.97 78.25,-118.74 131.57,-248.32 160.09,-388.73l-557.72 0c-20.4,47.45 -46.46,91.89 -78.14,133.17 -45.45,59.29 -102.5,106.89 -171.21,142.89 -68.68,35.96 -146.46,53.96 -233.32,53.96l-17.61 -0.23 0 508.09z"/>
   <path class="fil1" d="M2323.74 2310.68c-8.4,0.18 -16.82,0.25 -25.29,0.25 -202.04,0 -378.81,-40.75 -530.3,-122.21 -151.54,-81.47 -272.21,-190.47 -362.14,-326.98 -75.83,-115.13 -128.31,-240.43 -157.44,-375.93l560.73 0c19.47,42.72 43.67,82.83 72.46,120.4 45.47,59.27 102.51,106.89 171.23,142.88 68.67,35.95 146.43,53.95 233.31,53.95 12.69,0 25.17,-0.37 37.43,-1.08l0 508.73z"/>
   <path class="fil1" d="M2310.55 0l13.19 0.08 0 508.86c-12.25,-0.68 -24.73,-1.03 -37.43,-1.03 -141.4,0 -253.54,35.43 -336.35,106.32 -68.61,58.71 -121.98,137.42 -160.09,236.05l-550.56 0c26.91,-138.63 78.95,-268.1 156.11,-388.41 88.87,-138.6 211.08,-250.26 366.63,-334.89 155.58,-84.66 338.41,-126.98 548.5,-126.98z"/>
   <path class="fil2" d="M239.12 1400.1l1848.51 0c314.79,0 314.81,-467.85 0,-467.85l-1848.51 0c-314.81,0 -314.76,467.85 0,467.85z"/>
  </g>
 </g>
</svg>
