<?xml version="1.0" encoding="UTF-8"?>
<!DOCTYPE svg PUBLIC "-//W3C//DTD SVG 1.1//EN" "http://www.w3.org/Graphics/SVG/1.1/DTD/svg11.dtd">
<!-- Creator: CorelDRAW 2019 (64-Bit) -->
<svg xmlns="http://www.w3.org/2000/svg" xml:space="preserve" width="98.4781mm" height="23.4999mm" version="1.1" style="shape-rendering:geometricPrecision; text-rendering:geometricPrecision; image-rendering:optimizeQuality; fill-rule:evenodd; clip-rule:evenodd"
viewBox="0 0 9833.56 2346.59"
 xmlns:xlink="http://www.w3.org/1999/xlink"
 xmlns:xodm="http://www.corel.com/coreldraw/odm/2003">
 <defs>
  <style type="text/css">
   <![CDATA[
    .fil2 {fill:#2B2A29}
    .fil3 {fill:#2B2A29;fill-rule:nonzero}
    .fil0 {fill:#1473B5;fill-rule:nonzero}
    .fil1 {fill:#3FB24D;fill-rule:nonzero}
   ]]>
  </style>
 </defs>
 <g id="Layer_x0020_1">
  <metadata id="CorelCorpID_0Corel-Layer"/>
  <g id="_1819289720320">
   <path class="fil0" d="M-0 526.04l17.78 -0.23c142.8,0 256.04,35.78 339.68,107.38 66.24,56.72 118.43,131.85 156.53,225.45l558.54 0c-27.9,-135.15 -79.59,-261.57 -155.09,-379.33 -89.74,-139.97 -213.18,-252.72 -370.24,-338.17 -155.45,-84.59 -337.86,-127.3 -547.21,-128.2l0 513.1z"/>
   <path class="fil0" d="M-0 2346.55l5.53 0.04c204.02,0 382.53,-41.15 535.53,-123.42 153.02,-82.28 274.89,-192.34 365.68,-330.19 79.02,-119.91 132.87,-250.77 161.67,-392.55l-563.2 0c-20.6,47.92 -46.92,92.8 -78.91,134.49 -45.89,59.87 -103.51,107.94 -172.9,144.29 -69.36,36.32 -147.91,54.49 -235.62,54.49l-17.78 -0.23 0 513.09z"/>
   <path class="fil1" d="M2346.6 2333.42c-8.48,0.18 -16.99,0.25 -25.54,0.25 -204.02,0 -382.54,-41.15 -535.51,-123.41 -153.03,-82.27 -274.89,-192.34 -365.7,-330.2 -76.58,-116.26 -129.57,-242.8 -158.99,-379.63l566.25 0c19.66,43.14 44.1,83.65 73.17,121.58 45.91,59.85 103.52,107.94 172.92,144.28 69.35,36.31 147.88,54.48 235.61,54.48 12.81,0 25.41,-0.37 37.8,-1.09l0 513.74z"/>
   <path class="fil1" d="M2333.28 0l13.32 0.08 0 513.87c-12.37,-0.69 -24.97,-1.04 -37.8,-1.04 -142.79,0 -256.04,35.78 -339.66,107.36 -69.29,59.28 -123.18,138.77 -161.67,238.37l-555.97 0c27.17,-140 79.72,-270.74 157.64,-392.23 89.74,-139.97 213.16,-252.72 370.23,-338.18 157.11,-85.5 341.73,-128.23 553.9,-128.23z"/>
   <path class="fil2" d="M241.47 1413.87l1866.7 0c317.89,0 317.91,-472.46 0,-472.46l-1866.7 0c-317.91,0 -317.86,472.46 0,472.46z"/>
  </g>
  <path class="fil3" d="M3159.92 1566.78c-73.51,0 -138.74,-17.11 -195.67,-51.35 -56.94,-34.23 -101.25,-81.25 -132.97,-141.08 -31.71,-59.81 -47.56,-126.84 -47.56,-201.07 0,-73.51 16.22,-140.35 48.64,-200.53 32.43,-60.17 77.48,-107.38 135.12,-141.61 57.66,-34.23 123.24,-51.35 196.75,-51.35 72.07,0 135.12,13.88 189.18,41.62 54.05,27.74 97.11,64.86 129.18,111.35 32.07,46.47 52.43,97.83 61.07,154.04l-194.58 0c-7.93,-24.49 -20,-46.84 -36.22,-67.02 -16.22,-20.18 -36.58,-36.39 -61.07,-48.64 -24.5,-12.26 -52.25,-18.38 -83.25,-18.38 -40.35,0 -74.95,9.74 -103.77,29.19 -28.83,19.46 -50.46,45.76 -64.87,78.92 -14.42,33.15 -21.62,70.63 -21.62,112.43 0,41.81 7.2,79.28 21.62,112.43 14.41,33.15 35.86,59.46 64.33,78.92 28.46,19.46 63.23,29.19 104.31,29.19 50.46,0 90.45,-12.07 120,-36.21 29.56,-24.15 51.18,-58.21 64.87,-102.16l192.42 0c-7.93,55.49 -27.75,106.84 -59.45,154.05 -31.71,47.2 -75.31,85.22 -130.81,114.04 -55.49,28.83 -120.71,43.24 -195.66,43.24zm762.89 -181.61l383.76 0 0 168.64 -665.92 0 0 -95.13 387.01 -497.27 -387.01 0 0 -168.64 652.94 0 0 121.07 -370.79 471.33zm717.49 0l358.9 0 0 168.64 -544.84 0 0 -761.04 536.19 0 0 168.64 -350.25 0 0 134.06 311.34 0 0 155.66 -311.34 0 0 134.05zm796.41 -82.16l-99.45 0 0 250.8 -185.94 0 0 -761.04 354.58 0c51.18,0 96.76,11.17 136.75,33.51 40,22.34 71.17,52.79 93.51,91.35 22.34,38.55 33.5,81.97 33.5,130.26 0,49.73 -12.6,93.87 -37.84,132.43 -25.22,38.55 -60.17,67.92 -104.86,88.1l190.26 285.39 -220.53 0 -160 -250.8zm-99.45 -159.99l138.37 0c29.55,0 53.5,-8.65 71.89,-25.94 18.38,-17.3 27.57,-40.36 27.57,-69.19 0,-18.73 -4.33,-34.95 -12.97,-48.64 -8.66,-13.7 -20.54,-24.15 -35.68,-31.35 -15.13,-7.21 -32.07,-10.8 -50.81,-10.8l-138.37 0 0 185.93zm1188.82 -350.25l0 168.64 -237.83 0 0 592.4 -185.93 0 0 -592.4 -242.16 0 0 -168.64 665.92 0zm548.85 761.04l-47.56 -112.43 -337.28 0 -47.57 112.43 -190.25 0 337.27 -761.04 151.35 0 332.96 761.04 -198.91 0zm-319.98 -263.77l207.55 0 -103.78 -245.39 -103.77 245.39zm627.76 263.77l0 -761.04 185.94 0 0 761.04 -185.94 0zm839.65 -761.04l185.93 0 0 761.04 -112.42 0 -363.22 -406.46 0 406.46 -185.94 0 0 -761.04 108.1 0 367.55 410.78 0 -410.78zm549.93 592.4l324.3 0 0 168.64 -510.24 0 0 -761.04 185.94 0 0 592.4zm849.38 -592.4l211.87 0 -289.71 475.65 0 285.39 -185.94 0 0 -285.39 -289.71 -475.65 211.87 0 175.14 284.32 166.48 -284.32z"/>
 </g>
</svg>
