<?xml version="1.0" encoding="UTF-8"?>
<!DOCTYPE svg PUBLIC "-//W3C//DTD SVG 1.1//EN" "http://www.w3.org/Graphics/SVG/1.1/DTD/svg11.dtd">
<!-- Creator: CorelDRAW 2019 (64-Bit) -->
<svg xmlns="http://www.w3.org/2000/svg" xml:space="preserve" width="70.6005mm" height="35.7625mm" version="1.1" style="shape-rendering:geometricPrecision; text-rendering:geometricPrecision; image-rendering:optimizeQuality; fill-rule:evenodd; clip-rule:evenodd"
viewBox="0 0 7033.58 3562.84"
 xmlns:xlink="http://www.w3.org/1999/xlink"
 xmlns:xodm="http://www.corel.com/coreldraw/odm/2003">
 <defs>
  <style type="text/css">
   <![CDATA[
    .fil2 {fill:#2B2A29}
    .fil3 {fill:#2B2A29;fill-rule:nonzero}
    .fil0 {fill:#1473B5;fill-rule:nonzero}
    .fil1 {fill:#3FB24D;fill-rule:nonzero}
   ]]>
  </style>
 </defs>
 <g id="Layer_x0020_1">
  <metadata id="CorelCorpID_0Corel-Layer"/>
  <g id="_1819287951008">
   <path class="fil0" d="M2330.09 524.82l17.74 -0.23c142.47,0 255.45,35.7 338.89,107.14 66.09,56.59 118.16,131.54 156.17,224.93l557.25 0c-27.84,-134.84 -79.41,-260.97 -154.73,-378.46 -89.53,-139.64 -212.69,-252.14 -369.39,-337.39 -155.1,-84.39 -337.08,-127 -545.95,-127.91l0 511.91z"/>
   <path class="fil0" d="M2330.09 2341.14l5.52 0.04c203.55,0 381.64,-41.06 534.3,-123.14 152.67,-82.09 274.26,-191.9 364.84,-329.43 78.83,-119.63 132.56,-250.19 161.29,-391.65l-561.91 0c-20.55,47.81 -46.81,92.58 -78.72,134.18 -45.79,59.74 -103.27,107.69 -172.5,143.96 -69.2,36.23 -147.56,54.37 -235.08,54.37l-17.74 -0.23 0 511.9z"/>
   <path class="fil1" d="M4671.28 2328.04c-8.46,0.18 -16.95,0.25 -25.48,0.25 -203.55,0 -381.65,-41.06 -534.28,-123.13 -152.68,-82.08 -274.26,-191.9 -364.86,-329.44 -76.4,-115.99 -129.27,-242.24 -158.62,-378.75l564.94 0c19.62,43.04 43.99,83.46 73.01,121.3 45.81,59.72 103.28,107.69 172.52,143.95 69.19,36.22 147.53,54.36 235.07,54.36 12.78,0 25.35,-0.37 37.71,-1.09l0 512.55z"/>
   <path class="fil1" d="M4657.99 0l13.29 0.08 0 512.68c-12.34,-0.69 -24.92,-1.04 -37.71,-1.04 -142.46,0 -255.45,35.7 -338.87,107.12 -69.13,59.15 -122.9,138.45 -161.29,237.82l-554.69 0c27.11,-139.67 79.54,-270.11 157.28,-391.33 89.53,-139.64 212.67,-252.14 369.38,-337.4 156.75,-85.3 340.95,-127.94 552.62,-127.94z"/>
   <path class="fil2" d="M2571 1410.61l1862.39 0c317.16,0 317.18,-471.37 0,-471.37l-1862.39 0c-317.18,0 -317.13,471.37 0,471.37z"/>
  </g>
  <path class="fil3" d="M375.33 3562.84c-73.34,0 -138.42,-17.07 -195.22,-51.22 -56.81,-34.16 -101.02,-81.07 -132.66,-140.76 -31.64,-59.68 -47.45,-126.54 -47.45,-200.61 0,-73.34 16.18,-140.02 48.53,-200.07 32.36,-60.03 77.3,-107.13 134.81,-141.29 57.52,-34.15 122.96,-51.23 196.3,-51.23 71.9,0 134.81,13.85 188.74,41.52 53.93,27.68 96.89,64.71 128.88,111.09 32,46.37 52.31,97.6 60.94,153.68l-194.14 0c-7.91,-24.44 -19.95,-46.72 -36.13,-66.87 -16.18,-20.13 -36.49,-36.3 -60.93,-48.53 -24.45,-12.22 -52.13,-18.34 -83.05,-18.34 -40.27,0 -74.78,9.71 -103.54,29.13 -28.76,19.41 -50.34,45.65 -64.72,78.72 -14.38,33.09 -21.57,70.46 -21.57,112.17 0,41.71 7.19,79.09 21.57,112.17 14.38,33.08 35.78,59.33 64.18,78.73 28.39,19.42 63.08,29.12 104.08,29.12 50.33,0 90.23,-12.04 119.71,-36.12 29.49,-24.09 51.06,-58.07 64.72,-101.93l191.98 0c-7.91,55.37 -27.69,106.59 -59.32,153.69 -31.63,47.09 -75.14,85.02 -130.51,113.78 -55.36,28.76 -120.43,43.14 -195.21,43.14zm761.14 -181.19l382.88 0 0 168.25 -664.38 0 0 -94.91 386.12 -496.12 -386.12 0 0 -168.25 651.44 0 0 120.8 -369.94 470.24zm715.84 0l358.07 0 0 168.25 -543.57 0 0 -759.28 534.96 0 0 168.25 -349.45 0 0 133.75 310.62 0 0 155.31 -310.62 0 0 133.74zm794.57 -81.96l-99.22 0 0 250.21 -185.51 0 0 -759.28 353.77 0c51.05,0 96.53,11.15 136.43,33.43 39.91,22.29 71,52.67 93.3,91.14 22.29,38.47 33.42,81.78 33.42,129.96 0,49.61 -12.57,93.66 -37.75,132.12 -25.17,38.47 -60.03,67.76 -104.61,87.9l189.82 284.73 -220.02 0 -159.63 -250.21zm-99.22 -159.63l138.05 0c29.48,0 53.38,-8.63 71.72,-25.88 18.34,-17.27 27.51,-40.27 27.51,-69.03 0,-18.69 -4.31,-34.87 -12.94,-48.53 -8.64,-13.67 -20.49,-24.09 -35.6,-31.28 -15.09,-7.19 -32,-10.78 -50.69,-10.78l-138.05 0 0 185.5zm1186.08 -349.44l0 168.25 -237.28 0 0 591.04 -185.5 0 0 -591.04 -241.59 0 0 -168.25 664.37 0zm547.59 759.28l-47.45 -112.17 -336.5 0 -47.46 112.17 -189.82 0 336.5 -759.28 150.99 0 332.19 759.28 -198.45 0zm-319.24 -263.15l207.07 0 -103.53 -244.84 -103.54 244.84zm626.31 263.15l0 -759.28 185.51 0 0 759.28 -185.51 0zm837.72 -759.28l185.5 0 0 759.28 -112.16 0 -362.39 -405.52 0 405.52 -185.51 0 0 -759.28 107.85 0 366.7 409.84 0 -409.84zm548.67 591.04l323.55 0 0 168.25 -509.06 0 0 -759.28 185.51 0 0 591.04zm847.42 -591.04l211.38 0 -289.04 474.55 0 284.73 -185.51 0 0 -284.73 -289.04 -474.55 211.39 0 174.72 283.66 166.09 -283.66z"/>
 </g>
</svg>
